<?xml version="1.0" encoding="utf-8"?>
<!-- Generator: Adobe Illustrator 17.1.0, SVG Export Plug-In . SVG Version: 6.00 Build 0)  -->
<!DOCTYPE svg PUBLIC "-//W3C//DTD SVG 1.1//EN" "http://www.w3.org/Graphics/SVG/1.1/DTD/svg11.dtd">
<svg version="1.1" id="Layer_1" xmlns="http://www.w3.org/2000/svg" xmlns:xlink="http://www.w3.org/1999/xlink" x="0px" y="0px"
	 viewBox="0 0 300 80.7" enable-background="new 0 0 300 80.7" xml:space="preserve">
<g>
	<path fill-rule="evenodd" clip-rule="evenodd" fill="#47493F" d="M45,42.9c0-0.9-0.5-1.7-1.2-2.1L23.7,29.2
		c-0.3-0.2-0.7-0.3-1.1-0.3c0,0-0.2,0-0.2,0c-0.4,0-0.8,0.1-1.1,0.3L1.2,40.8C0.5,41.2,0,42,0,42.9L0,74c0,0.4,0.2,0.8,0.6,1
		c0.4,0.2,0.8,0.2,1.2,0l11.9-6.8c0.8-0.4,1.2-1.2,1.2-2.1V51.6c0-0.9,0.5-1.7,1.2-2.1l5.1-2.9c0.4-0.2,0.8-0.3,1.2-0.3
		c0.4,0,0.8,0.1,1.2,0.3l5.1,2.9c0.8,0.4,1.2,1.2,1.2,2.1v14.5c0,0.9,0.5,1.7,1.2,2.1l11.9,6.8c0.4,0.2,0.8,0.2,1.2,0
		c0.4-0.2,0.6-0.6,0.6-1L45,42.9z"/>
	<path fill-rule="evenodd" clip-rule="evenodd" fill="#47493F" d="M152.2,0.2c-0.4-0.2-0.8-0.2-1.2,0c-0.4,0.2-0.6,0.6-0.6,1V32
		c0,0.3-0.2,0.6-0.4,0.7c-0.3,0.2-0.6,0.2-0.8,0l-5-2.9c-0.7-0.4-1.7-0.4-2.4,0l-20.1,11.6c-0.8,0.4-1.2,1.2-1.2,2.1v23.2
		c0,0.9,0.5,1.7,1.2,2.1l20.1,11.6c0.8,0.4,1.7,0.4,2.4,0l20.1-11.6c0.7-0.4,1.2-1.2,1.2-2.1V8.9c0-0.9-0.5-1.7-1.2-2.1L152.2,0.2z
		 M150.3,59.1c0,0.2-0.1,0.4-0.3,0.5l-6.9,4c-0.2,0.1-0.4,0.1-0.6,0l-6.9-4c-0.2-0.1-0.3-0.3-0.3-0.5v-8c0-0.2,0.1-0.4,0.3-0.5
		l6.9-4c0.2-0.1,0.4-0.1,0.6,0l6.9,4c0.2,0.1,0.3,0.3,0.3,0.5V59.1z"/>
	<path fill-rule="evenodd" clip-rule="evenodd" fill="#47493F" d="M224,50.9c0.7-0.4,1.2-1.2,1.2-2.1v-5.6c0-0.9-0.5-1.7-1.2-2.1
		L204,29.5c-0.8-0.4-1.7-0.4-2.4,0l-20.1,11.6c-0.7,0.4-1.2,1.2-1.2,2.1v23.2c0,0.9,0.5,1.7,1.2,2.1l19.9,11.4
		c0.7,0.4,1.6,0.4,2.4,0l12.1-6.7c0.4-0.2,0.6-0.6,0.6-1.1c0-0.4-0.2-0.8-0.6-1.1l-20.2-11.6c-0.4-0.2-0.6-0.6-0.6-1.1v-7.3
		c0-0.4,0.2-0.8,0.6-1.1l6.3-3.6c0.4-0.2,0.8-0.2,1.2,0l6.3,3.6c0.4,0.2,0.6,0.6,0.6,1.1v5.7c0,0.4,0.2,0.8,0.6,1
		c0.4,0.2,0.8,0.2,1.2,0L224,50.9z"/>
	<path fill-rule="evenodd" clip-rule="evenodd" fill="#FFFFFF" d="M81.5,29.4c0.7-0.4,1.7-0.4,2.4,0L104,41c0.8,0.4,1.2,1.2,1.2,2.1
		v23.2c0,0.9-0.5,1.7-1.2,2.1L83.9,80c-0.8,0.4-1.7,0.4-2.4,0L61.4,68.4c-0.7-0.4-1.2-1.2-1.2-2.1V43.1c0-0.9,0.5-1.7,1.2-2.1
		L81.5,29.4z"/>
	
	<path fill-rule="evenodd" clip-rule="evenodd" fill="#FFFFFF" d="M202.5,49.8c0.1-0.1,0.3-0.1,0.5,0l3.9,2.2
		c0.1,0.1,0.2,0.2,0.2,0.4v4.4c0,0.2-0.1,0.3-0.2,0.4l-3.9,2.2c-0.1,0.1-0.3,0.1-0.5,0l-3.8-2.2c-0.1-0.1-0.2-0.2-0.2-0.4v-4.4
		c0-0.2,0.1-0.3,0.2-0.4L202.5,49.8z"/>
</g>
</svg>
